<mxfile host="Electron" agent="Mozilla/5.0 (Windows NT 10.0; Win64; x64) AppleWebKit/537.36 (KHTML, like Gecko) draw.io/24.7.17 Chrome/128.0.6613.36 Electron/32.0.1 Safari/537.36" version="24.7.17">
  <diagram name="Page-1" id="sauJervdV8pSpNJdMbdd">
    <mxGraphModel dx="971" dy="1071" grid="1" gridSize="10" guides="1" tooltips="1" connect="1" arrows="1" fold="1" page="1" pageScale="1" pageWidth="850" pageHeight="1100" math="0" shadow="0">
      <root>
        <mxCell id="0" />
        <mxCell id="1" parent="0" />
        <mxCell id="E9nixSbG7K2rvXwsac23-1" value="&lt;font style=&quot;font-size: 24px;&quot;&gt;&lt;b&gt;SoC&lt;/b&gt;&lt;/font&gt;" style="rounded=1;whiteSpace=wrap;html=1;fillColor=#F58C8C;" parent="1" vertex="1">
          <mxGeometry x="195" y="490" width="790" height="60" as="geometry" />
        </mxCell>
        <mxCell id="E9nixSbG7K2rvXwsac23-2" value="&lt;font style=&quot;font-size: 24px;&quot;&gt;&lt;b&gt;BIOS&lt;/b&gt;&lt;/font&gt;" style="rounded=1;whiteSpace=wrap;html=1;fillColor=#EBAF7A;" parent="1" vertex="1">
          <mxGeometry x="245" y="420" width="690" height="60" as="geometry" />
        </mxCell>
        <mxCell id="E9nixSbG7K2rvXwsac23-3" value="&lt;font style=&quot;font-size: 24px;&quot;&gt;&lt;b&gt;Demo&lt;/b&gt;&lt;/font&gt;" style="rounded=1;whiteSpace=wrap;html=1;fillColor=#DEFF85;" parent="1" vertex="1">
          <mxGeometry x="298.75" y="350" width="570" height="60" as="geometry" />
        </mxCell>
        <mxCell id="E9nixSbG7K2rvXwsac23-4" value="" style="rounded=1;whiteSpace=wrap;html=1;fillColor=#ADE688;" parent="1" vertex="1">
          <mxGeometry x="400" y="130" width="360" height="210" as="geometry" />
        </mxCell>
        <mxCell id="E9nixSbG7K2rvXwsac23-6" value="&lt;font style=&quot;font-size: 18px;&quot;&gt;Boot.bin&lt;/font&gt;" style="text;html=1;align=center;verticalAlign=middle;resizable=0;points=[];autosize=1;strokeColor=none;fillColor=none;rotation=0;" parent="1" vertex="1">
          <mxGeometry x="215" y="270" width="90" height="40" as="geometry" />
        </mxCell>
        <mxCell id="E9nixSbG7K2rvXwsac23-12" value="&lt;font style=&quot;font-size: 18px;&quot;&gt;&lt;b&gt;donut&lt;/b&gt;&lt;/font&gt;" style="rounded=1;whiteSpace=wrap;html=1;fillColor=#D4D4D4;" parent="1" vertex="1">
          <mxGeometry x="478.75" y="230" width="60" height="50" as="geometry" />
        </mxCell>
        <mxCell id="E9nixSbG7K2rvXwsac23-13" value="&lt;font style=&quot;font-size: 18px;&quot;&gt;&lt;b&gt;cmatrix&lt;/b&gt;&lt;/font&gt;" style="rounded=1;whiteSpace=wrap;html=1;fillColor=#D4D4D4;" parent="1" vertex="1">
          <mxGeometry x="478.75" y="170" width="81.25" height="50" as="geometry" />
        </mxCell>
        <mxCell id="E9nixSbG7K2rvXwsac23-14" value="&lt;font style=&quot;font-size: 18px;&quot;&gt;&lt;b&gt;hello&lt;/b&gt;&lt;/font&gt;" style="rounded=1;whiteSpace=wrap;html=1;fillColor=#D4D4D4;" parent="1" vertex="1">
          <mxGeometry x="553.75" y="230" width="60" height="50" as="geometry" />
        </mxCell>
        <mxCell id="E9nixSbG7K2rvXwsac23-16" value="&lt;font style=&quot;font-size: 18px;&quot;&gt;&lt;b style=&quot;&quot;&gt;help&lt;/b&gt;&lt;/font&gt;" style="rounded=1;whiteSpace=wrap;html=1;fillColor=#D4D4D4;" parent="1" vertex="1">
          <mxGeometry x="570" y="170" width="60" height="50" as="geometry" />
        </mxCell>
        <mxCell id="E9nixSbG7K2rvXwsac23-17" value="&lt;font style=&quot;font-size: 18px;&quot;&gt;&lt;b&gt;clear&lt;/b&gt;&lt;/font&gt;" style="rounded=1;whiteSpace=wrap;html=1;fillColor=#D4D4D4;" parent="1" vertex="1">
          <mxGeometry x="690" y="230" width="60" height="50" as="geometry" />
        </mxCell>
        <mxCell id="E9nixSbG7K2rvXwsac23-18" value="&lt;font style=&quot;font-size: 18px;&quot;&gt;&lt;b&gt;led&lt;/b&gt;&lt;/font&gt;" style="rounded=1;whiteSpace=wrap;html=1;fillColor=#D4D4D4;" parent="1" vertex="1">
          <mxGeometry x="710" y="170" width="40" height="50" as="geometry" />
        </mxCell>
        <mxCell id="E9nixSbG7K2rvXwsac23-19" value="&lt;font style=&quot;font-size: 18px;&quot;&gt;&lt;b&gt;helloc&lt;/b&gt;&lt;/font&gt;" style="rounded=1;whiteSpace=wrap;html=1;fillColor=#D4D4D4;" parent="1" vertex="1">
          <mxGeometry x="640" y="170" width="60" height="50" as="geometry" />
        </mxCell>
        <mxCell id="E9nixSbG7K2rvXwsac23-20" value="&lt;span style=&quot;font-size: 18px;&quot;&gt;&lt;b&gt;dry&lt;/b&gt;&lt;/span&gt;" style="rounded=1;whiteSpace=wrap;html=1;fillColor=#D4D4D4;" parent="1" vertex="1">
          <mxGeometry x="630" y="230" width="50" height="50" as="geometry" />
        </mxCell>
        <mxCell id="E9nixSbG7K2rvXwsac23-21" value="&lt;font style=&quot;font-size: 18px;&quot;&gt;&lt;b style=&quot;&quot;&gt;C Programe&lt;/b&gt;&lt;/font&gt;" style="rounded=1;whiteSpace=wrap;html=1;rotation=-90;fillColor=#D4D4D4;" parent="1" vertex="1">
          <mxGeometry x="380" y="200" width="120" height="50" as="geometry" />
        </mxCell>
        <mxCell id="E9nixSbG7K2rvXwsac23-25" value="&lt;font style=&quot;font-size: 24px;&quot;&gt;&lt;b&gt;Application&lt;/b&gt;&lt;/font&gt;" style="text;html=1;align=center;verticalAlign=middle;resizable=0;points=[];autosize=1;strokeColor=none;fillColor=none;" parent="1" vertex="1">
          <mxGeometry x="498.75" y="290" width="150" height="40" as="geometry" />
        </mxCell>
        <mxCell id="E9nixSbG7K2rvXwsac23-26" value="&lt;b&gt;&lt;font style=&quot;font-size: 24px;&quot;&gt;sdcard&lt;/font&gt;&lt;/b&gt;" style="rounded=1;whiteSpace=wrap;html=1;fillColor=#B0B0B0;" parent="1" vertex="1">
          <mxGeometry x="190" y="210" width="140" height="60" as="geometry" />
        </mxCell>
        <mxCell id="E9nixSbG7K2rvXwsac23-37" value="" style="endArrow=none;dashed=1;html=1;dashPattern=1 3;strokeWidth=2;rounded=0;exitX=0;exitY=0.5;exitDx=0;exitDy=0;" parent="1" source="E9nixSbG7K2rvXwsac23-3" edge="1">
          <mxGeometry width="50" height="50" relative="1" as="geometry">
            <mxPoint x="210" y="350" as="sourcePoint" />
            <mxPoint x="260" y="300" as="targetPoint" />
            <Array as="points">
              <mxPoint x="260" y="380" />
            </Array>
          </mxGeometry>
        </mxCell>
        <mxCell id="E9nixSbG7K2rvXwsac23-38" value="" style="endArrow=none;dashed=1;html=1;dashPattern=1 3;strokeWidth=2;rounded=0;" parent="1" edge="1">
          <mxGeometry width="50" height="50" relative="1" as="geometry">
            <mxPoint x="215" y="480" as="sourcePoint" />
            <mxPoint x="215" y="275" as="targetPoint" />
          </mxGeometry>
        </mxCell>
      </root>
    </mxGraphModel>
  </diagram>
</mxfile>
